<svg width="24" height="24" viewBox="0 0 24 24" fill="none" xmlns="http://www.w3.org/2000/svg">
<path d="M11.5788 17.6227L6.42851 15.0476M6.4212 12.9561L11.5764 10.3785M16 18.6667C16 19.9553 14.9553 21 13.6667 21C12.378 21 11.3333 19.9553 11.3333 18.6667C11.3333 17.378 12.378 16.3333 13.6667 16.3333C14.9553 16.3333 16 17.378 16 18.6667ZM16 9.33333C16 10.622 14.9553 11.6667 13.6667 11.6667C12.378 11.6667 11.3333 10.622 11.3333 9.33333C11.3333 8.04467 12.378 7 13.6667 7C14.9553 7 16 8.04467 16 9.33333ZM6.66667 14C6.66667 15.2887 5.622 16.3333 4.33333 16.3333C3.04467 16.3333 2 15.2887 2 14C2 12.7113 3.04467 11.6667 4.33333 11.6667C5.622 11.6667 6.66667 12.7113 6.66667 14Z" stroke="#A988C9" stroke-width="1.5"/>
</svg>
